# xmcd
#
# Track frame offsets: 
#        150
#        16650
#        34375
#
# Disc length: 674 seconds
#
# Revision: 6
# Processed by: cddbd v1.5.2PL0 Copyright (c) Steve Scherf et al.
# Submitted via: ExactAudioCopyFreeDBPlugin 1.0
#
DISCID=1902a003
DTITLE=刘德华 - 我爱你
DYEAR=1993
DGENRE=Pop
TTITLE0=我爱你
TTITLE1=硬汉子·热女人
TTITLE2=我爱你 <卡拉OK版>
EXTD=
EXTT0=
EXTT1=
EXTT2=
PLAYORDER=
